<?xml version="1.0" encoding="UTF-8" standalone="no"?>
<!DOCTYPE svg PUBLIC "-//W3C//DTD SVG 1.1//EN" "http://www.w3.org/Graphics/SVG/1.1/DTD/svg11.dtd">
<!--<svg width="456" height="456" viewBox="0 0 456 456" version="1.1" xmlns="http://www.w3.org/2000/svg" xmlns:xlink="http://www.w3.org/1999/xlink" xml:space="preserve" xmlns:serif="http://www.serif.com/" style="fill-rule:evenodd;clip-rule:evenodd;stroke-linejoin:round;stroke-miterlimit:2;">
    <path d="m 105.50037,281.60863 c -2.70293,0 -5.00091,-0.90042 -6.893127,-2.70209 -1.892214,-1.84778 -2.837901,-4.04181 -2.837901,-6.58209 0,-2.58722 0.945687,-4.80389 2.837901,-6.65167 1.892217,-1.84778 4.190197,-2.77167 6.893127,-2.77167 2.74819,0 5.06798,0.92389 6.96019,2.77167 1.93749,1.84778 2.90581,4.06445 2.90581,6.65167 0,2.54028 -0.96832,4.73431 -2.90581,6.58209 -1.89221,1.80167 -4.212,2.70209 -6.96019,2.70209 z" style="fill:#ffffff;fill-rule:nonzero;stroke-width:0.838376" />
    <path d="M 213.56111,280.08446 H 195.99044 L 149.69953,207.0544 c -1.17121,-1.84778 -2.14037,-3.76515 -2.90581,-5.75126 h -0.40578 c 0.36051,2.12528 0.54076,6.67515 0.54076,13.6496 v 65.13172 h -15.54349 v -99.36009 h 18.71925 l 44.7374,71.29798 c 1.89222,2.95695 3.1087,4.98917 3.64945,6.09751 h 0.26996 c -0.45021,-2.6325 -0.67573,-7.09015 -0.67573,-13.37293 v -64.02256 h 15.47557 z" style="fill:#ffffff;fill-rule:nonzero;stroke-width:0.838376" />
    <path d="m 289.25134,280.08446 h -54.40052 v -99.36009 h 52.23835 v 13.99669 h -36.15411 v 28.13085 h 33.31621 v 13.9271 h -33.31621 v 29.37835 h 38.31628 z" style="fill:#ffffff;fill-rule:nonzero;stroke-width:0.838376" />
    <path d="M 366.56466,194.72106 H 338.7222 v 85.3634 h -16.08423 v -85.3634 h -27.77455 v -13.99669 h 71.70124 z" style="fill:#ffffff;fill-rule:nonzero;stroke-width:0.838376" />
</svg>-->
<svg width="244.97" height="299.34" viewBox="0 0 393 852" fill="none" xmlns="http://www.w3.org/2000/svg">
  <g clip-path="url(#clip0_3_1210)">
    <rect width="393" height="852" fill="white"/>
    <rect x="-1" width="394" height="852" fill="#182F40"/>
    <path d="M273.852 334.184C270.724 337.035 267.527 340.061 264.376 343.265C259.079 309.692 251.551 287.87 251.551 287.87L240.477 290.876C235.335 308.441 213.536 316.643 213.536 316.643C190.816 324.472 174.817 310.347 174.817 310.347L151.661 318.967C197.818 406.4 194.099 477.869 194.099 477.869C182.26 391.993 128.087 310.107 128.087 310.107L178.513 292.674C190.267 311.316 207.775 306.38 207.775 306.38C231.039 299.802 226.38 277.96 226.38 277.96L259.492 268C266.889 292.1 271.378 314.295 273.848 334.184H273.852Z" fill="#5DBDF0"/>
    <path d="M267.415 444.075C269.866 421.424 269.843 399.625 268.486 379.867C270.937 375.811 273.585 371.623 276.389 367.389C277.657 415.83 267.415 444.075 267.415 444.075Z" fill="#5DBDF0"/>
    <path d="M145.404 347.213C145.404 347.213 131.86 367.087 104.776 353.245L79.605 377.779C79.605 377.779 155.252 414.923 181.243 465.36C181.243 465.36 175.497 423.965 100.26 374.626L108.286 364.94C108.286 364.94 139.929 374.49 145.404 347.213Z" fill="#186CA8"/>
    <path d="M116.039 401.674C116.039 401.674 115.49 423.787 84.8517 425.065L75 455.217C75 455.217 151.602 453.938 194.648 483.362C194.648 483.362 161.454 447.542 90.6862 444.435L92.8746 431.825C92.8746 431.825 120.69 430.636 116.039 401.674Z" fill="#5DBDF0"/>
    <path d="M282.47 410.263C282.47 410.263 337.459 409.166 244.714 462.895C244.714 462.895 197.11 492.226 155.797 491.68C155.797 491.68 136.434 492.648 155.797 473.863C155.797 473.863 116.22 502.554 152.333 506.207C152.333 506.207 194.647 507.122 239.897 483.753C239.897 483.753 326.787 444.257 317.759 418.762C317.759 418.762 315.389 454.307 214.343 490.126C214.343 490.126 308.82 448.461 313.564 419.584C313.564 419.584 316.116 404.235 282.466 410.263H282.47Z" fill="#5DBDF0"/>
    <path d="M192.482 376.903C192.482 376.903 215.828 396.823 230.238 424.6C230.238 424.6 236.258 431.547 239.723 420.761C239.723 420.761 270.183 347.569 319.975 307.821C319.975 307.821 261.974 340.991 233.796 394.716C233.796 394.716 219.296 370.867 214.463 366.571C214.463 366.571 210.543 362.825 192.486 376.895L192.482 376.903Z" fill="#5DBDF0"/>
    <path d="M289.682 530.86H285.743V527.212H298.146V530.86H294.644L301.794 542.68L309.09 530.86H305.442V527.212H317.115V530.86H313.54L303.837 546.036L314.197 562.962H317.845V566.61H305.442V562.962H309.163L300.918 549.465L292.966 562.962H296.687V566.61H285.013V562.962H288.515L298.948 546.182L289.682 530.86Z" fill="white"/>
    <path d="M269.715 562.962H274.093V530.86H269.715V527.212H282.848V530.86H278.47V562.962H282.848V566.61H269.715V562.962Z" fill="white"/>
    <path d="M244.907 562.962H250.014V530.86H241.988V536.697H238.122V527.212H266.284V536.697H262.417V530.86H254.392V562.962H259.499V566.61H244.907V562.962Z" fill="white"/>
    <path d="M233.969 561.138V565.078C231.537 566.586 228.692 567.34 225.433 567.34C221.591 567.34 218.575 566.051 216.386 563.473C214.246 560.895 213.176 557.296 213.176 552.675C213.176 547.908 214.319 544.187 216.605 541.512C218.891 538.788 221.761 537.426 225.214 537.426C228.035 537.426 230.321 538.545 232.072 540.783C233.823 543.02 234.699 546.206 234.699 550.34V552.602H217.699C217.797 556.007 218.453 558.658 219.669 560.555C220.934 562.451 222.928 563.449 225.652 563.546C228.668 563.546 231.44 562.743 233.969 561.138ZM230.321 549.1C230.321 546.327 229.811 544.309 228.789 543.044C227.768 541.731 226.333 541.074 224.485 541.074C222.685 541.074 221.177 541.755 219.961 543.117C218.745 544.431 218.016 546.425 217.772 549.1H230.321Z" fill="white"/>
    <path d="M193.131 562.962H196.779V541.804H193.131V538.156H200.938L201.157 542.242H201.303C202.227 540.685 203.248 539.542 204.367 538.813C205.486 538.083 206.823 537.718 208.38 537.718C208.964 537.718 209.474 537.767 209.912 537.864V542.461C209.182 542.315 208.428 542.242 207.65 542.242C206.24 542.242 204.999 542.582 203.929 543.263C202.908 543.896 201.984 544.941 201.157 546.4V562.962H205.534V566.61H193.131V562.962Z" fill="white"/>
    <path d="M165.044 552.529C165.044 547.908 166.163 544.236 168.4 541.512C170.686 538.788 173.556 537.426 177.009 537.426C180.463 537.426 183.211 538.691 185.254 541.22C187.345 543.75 188.391 547.3 188.391 551.872C188.391 556.542 187.297 560.287 185.108 563.108C182.919 565.929 180.049 567.34 176.499 567.34C172.997 567.34 170.2 566.002 168.108 563.327C166.066 560.603 165.044 557.004 165.044 552.529ZM169.641 551.872C169.641 555.715 170.249 558.658 171.465 560.7C172.729 562.695 174.529 563.692 176.864 563.692C179.052 563.692 180.755 562.768 181.971 560.919C183.187 559.022 183.795 556.153 183.795 552.31C183.795 544.82 181.411 541.074 176.645 541.074C174.359 541.074 172.608 541.95 171.392 543.701C170.224 545.403 169.641 548.127 169.641 551.872Z" fill="white"/>
    <path d="M159.579 565.516C157.244 566.732 154.69 567.34 151.918 567.34C147.978 567.34 144.865 566.075 142.579 563.546C140.293 561.017 139.15 557.393 139.15 552.675C139.15 547.908 140.342 544.187 142.725 541.512C145.157 538.788 148.294 537.426 152.137 537.426C154.812 537.426 157.293 537.986 159.579 539.105V546.182H155.712V541.731C154.642 541.293 153.328 541.074 151.772 541.074C149.048 541.074 147.03 541.95 145.716 543.701C144.403 545.403 143.746 548.127 143.746 551.872C143.746 555.861 144.452 558.804 145.862 560.7C147.273 562.597 149.316 563.546 151.991 563.546C154.617 563.546 157.147 562.889 159.579 561.576V565.516Z" fill="white"/>
    <path d="M107.775 562.962H111.423V541.804H107.775V538.156H115.509L115.728 541.95H115.801C118.427 538.934 121.443 537.426 124.848 537.426C127.28 537.426 129.055 538.132 130.174 539.542C131.293 540.904 131.852 542.85 131.852 545.379V562.962H135.5V566.61H124.556V562.962H127.474V545.963C127.474 544.017 127.134 542.728 126.453 542.096C125.772 541.415 124.823 541.074 123.608 541.074C120.786 541.074 118.184 542.582 115.801 545.598V562.962H118.719V566.61H107.775V562.962Z" fill="white"/>
    <path d="M99.5288 562.962V557.855H103.396V566.61H77.1303V562.962H81.5079V530.86H77.1303V527.212H102.666V535.967H98.7992V530.86H85.8854V544.722H93.1814V541.074H96.8293V552.748H93.1814V548.37H85.8854V562.962H99.5288Z" fill="white"/>
  </g>
  <defs>
    <clipPath id="clip0_3_1210">
      <rect width="393" height="852" fill="white"/>
    </clipPath>
  </defs>
</svg>