<!--<svg width="419" height="519" viewBox="0 0 419 519" fill="none" xmlns="http://www.w3.org/2000/svg">
<path d="M284.432 247.568L284.004 221.881C316.359 221.335 340.356 211.735 355.308 193.336C382.408 159.996 372.893 108.183 372.786 107.659L398.013 102.831C398.505 105.432 409.797 167.017 375.237 209.53C355.276 234.093 324.719 246.894 284.432 247.568Z" fill="#8A6FE8"/>
<path d="M331.954 109.36L361.826 134.245C367.145 138.676 375.055 137.959 379.497 132.639C383.928 127.32 383.211 119.41 377.891 114.969L348.019 90.0842C342.7 85.6531 334.79 86.3702 330.348 91.6896C325.917 97.0197 326.634 104.929 331.954 109.36Z" fill="#8A6FE8"/>
<path d="M407.175 118.062L417.92 94.2263C420.735 87.858 417.856 80.4087 411.488 77.5831C405.12 74.7682 397.67 77.6473 394.845 84.0156L383.831 108.461L407.175 118.062Z" fill="#8A6FE8"/>
<path d="M401.363 105.175L401.234 69.117C401.181 62.1493 395.498 56.541 388.53 56.5945C381.562 56.648 375.954 62.3313 376.007 69.2989L376.018 96.11L401.363 105.175Z" fill="#8A6FE8"/>
<path d="M386.453 109.071L378.137 73.9548C376.543 67.169 369.757 62.9628 362.971 64.5575C356.185 66.1523 351.979 72.938 353.574 79.7237L362.04 115.482L386.453 109.071Z" fill="#8A6FE8"/>
<path d="M381.776 142.261C396.359 142.261 408.181 130.44 408.181 115.857C408.181 101.274 396.359 89.4527 381.776 89.4527C367.194 89.4527 355.372 101.274 355.372 115.857C355.372 130.44 367.194 142.261 381.776 142.261Z" fill="url(#paint0_radial)"/>
<path d="M248.267 406.979C248.513 384.727 245.345 339.561 222.376 301.736L199.922 315.372C220.76 349.675 222.323 389.715 221.841 407.182C221.798 408.627 235.263 409.933 248.267 406.979Z" fill="url(#paint1_linear)"/>
<path d="M221.841 406.936L242.637 406.84L262.052 518.065L220.311 518.258C217.132 518.269 214.724 515.711 214.938 512.532L221.841 406.936Z" fill="#522CD5"/>
<path d="M306.566 488.814C310.173 491.661 310.109 495.782 309.831 500.127L308.964 513.452C308.803 515.839 306.727 517.798 304.34 517.809L260.832 518.012C258.125 518.023 256.08 515.839 256.262 513.142L256.551 499.335C256.883 494.315 255.192 492.474 251.307 487.744C244.649 479.663 224.967 435.62 226.84 406.925L248.256 406.829C249.691 423.858 272.167 461.682 306.566 488.814Z" fill="url(#paint2_linear)"/>
<path d="M309.82 500.127C310.023 497.088 310.077 494.176 308.889 491.715L254.635 491.961C256.134 494.166 256.765 496.092 256.562 499.314L256.273 513.121C256.091 515.828 258.146 518.012 260.843 517.99L304.34 517.798C306.727 517.787 308.803 515.828 308.964 513.442L309.82 500.127Z" fill="url(#paint3_radial)"/>
<path d="M133.552 407.471C133.103 385.22 135.864 340.021 158.49 301.993L181.073 315.425C160.545 349.921 159.346 389.972 159.989 407.428C160.042 408.884 146.578 410.318 133.552 407.471Z" fill="url(#paint4_linear)"/>
<path d="M110.798 497.152C110.765 494.187 111.204 491.575 112.457 487.23C131.882 434.132 133.52 407.364 133.52 407.364L159.999 407.246C159.999 407.246 161.819 433.512 181.716 486.427C183.289 490.195 183.471 493.641 183.674 496.831L183.792 513.816C183.803 516.374 181.716 518.483 179.158 518.494L177.873 518.504L116.781 518.782L115.496 518.793C112.927 518.804 110.83 516.728 110.819 514.159L110.798 497.152Z" fill="url(#paint5_linear)"/>
<path d="M110.798 497.152C110.798 496.67 110.808 496.199 110.83 495.739C110.969 494.262 111.643 492.603 114.875 492.582L180.207 492.282C182.561 492.367 183.343 494.176 183.589 495.311C183.621 495.814 183.664 496.328 183.696 496.82L183.813 513.806C183.824 515.411 183.011 516.824 181.769 517.669C181.031 518.172 180.132 518.472 179.179 518.483L177.895 518.494L116.802 518.772L115.528 518.782C114.244 518.793 113.077 518.269 112.232 517.434C111.386 516.599 110.862 515.432 110.851 514.148L110.798 497.152Z" fill="url(#paint6_radial)"/>
<path d="M314.979 246.348C324.162 210.407 318.008 181.777 318.008 181.777L326.452 181.734L326.656 181.574C314.262 115.75 256.326 66.0987 186.949 66.4198C108.796 66.773 45.7233 130.424 46.0765 208.577C46.4297 286.731 110.08 349.803 188.234 349.45C249.905 349.172 302.178 309.474 321.304 254.343C321.872 251.999 321.797 247.804 314.979 246.348Z" fill="url(#paint7_radial)"/>
<path d="M310.237 279.035L65.877 280.148C71.3998 289.428 77.95 298.012 85.3672 305.761L290.972 304.829C298.336 297.005 304.8 288.368 310.237 279.035Z" fill="#D8CFF7"/>
<path d="M235.062 312.794L280.924 312.585L280.74 272.021L234.877 272.23L235.062 312.794Z" fill="#512BD4"/>
<path d="M243.001 297.626C242.691 297.626 242.434 297.53 242.22 297.327C242.006 297.123 241.899 296.866 241.899 296.588C241.899 296.299 242.006 296.042 242.22 295.839C242.434 295.625 242.691 295.528 243.001 295.528C243.312 295.528 243.568 295.635 243.782 295.839C243.996 296.042 244.114 296.299 244.114 296.588C244.114 296.877 244.007 297.123 243.793 297.327C243.568 297.519 243.312 297.626 243.001 297.626Z" fill="white"/>
<path d="M255.192 297.434H253.212L247.967 289.203C247.839 289 247.721 288.775 247.636 288.55H247.593C247.636 288.786 247.657 289.299 247.657 290.091L247.668 297.444H245.912L245.891 286.228H247.999L253.062 294.265C253.276 294.597 253.415 294.833 253.479 294.95H253.511C253.458 294.651 253.437 294.148 253.437 293.441L253.426 286.217H255.17L255.192 297.434Z" fill="white"/>
<path d="M263.733 297.412L257.589 297.423L257.568 286.206L263.465 286.195V287.779L259.387 287.79L259.398 290.969L263.155 290.958V292.532L259.398 292.542L259.409 295.86L263.733 295.85V297.412Z" fill="white"/>
<path d="M272.445 287.758L269.298 287.769L269.32 297.401H267.5L267.479 287.769L264.343 287.779V286.195L272.434 286.174L272.445 287.758Z" fill="white"/>
<path d="M315.279 246.337C324.355 210.836 318.457 182.483 318.308 181.798L171.484 182.462C171.484 182.462 162.226 181.563 162.268 190.018C162.311 198.463 162.761 222.341 162.878 248.746C162.9 254.172 167.363 256.773 170.863 256.751C170.874 256.751 311.618 252.213 315.279 246.337Z" fill="url(#paint8_radial)"/>
<path d="M227.685 246.798C227.685 246.798 250.183 228.827 254.571 225.499C258.959 222.17 262.812 221.977 266.869 225.445C270.925 228.913 293.616 246.498 293.616 246.498L227.685 246.798Z" fill="#A08BE8"/>
<path d="M320.748 256.141C320.748 256.141 324.943 248.414 315.279 246.348C315.289 246.305 170.927 246.894 170.927 246.894C167.566 246.905 163.232 244.925 162.846 241.671C162.857 244.004 162.878 246.369 162.889 248.756C162.91 253.68 166.582 256.27 169.878 256.698C170.21 256.73 170.542 256.773 170.874 256.773L180.742 256.73L320.748 256.141Z" fill="#512BD4"/>
<path d="M206.4 233.214C212.511 233.095 217.302 224.667 217.102 214.39C216.901 204.112 211.785 195.878 205.674 195.997C199.563 196.116 194.772 204.544 194.973 214.821C195.173 225.099 200.289 233.333 206.4 233.214Z" fill="#512BD4"/>
<path d="M306.249 214.267C306.356 203.989 301.488 195.605 295.377 195.541C289.266 195.478 284.225 203.758 284.118 214.037C284.011 224.315 288.878 232.699 294.99 232.763C301.101 232.826 306.142 224.545 306.249 214.267Z" fill="#512BD4"/>
<path d="M205.905 205.291C208.152 203.022 211.192 202.016 214.157 202.262C215.912 205.495 217.014 209.733 217.111 214.389C217.164 217.3 216.811 220.04 216.158 222.513C212.669 223.519 208.752 222.662 205.979 219.922C201.912 215.909 201.88 209.348 205.905 205.291Z" fill="#8065E0"/>
<path d="M294.996 204.285C297.255 202.016 300.294 200.999 303.259 201.256C305.164 204.628 306.309 209.209 306.256 214.239C306.224 216.808 305.892 219.259 305.303 221.485C301.793 222.523 297.843 221.678 295.061 218.916C291.004 214.892 290.972 208.342 294.996 204.285Z" fill="#8065E0"/>
<path d="M11.6342 357.017C10.9171 354.716 -5.72611 300.141 21.3204 258.903C36.9468 235.078 63.3083 221.035 99.6664 217.15L102.449 243.276C74.3431 246.273 54.4676 256.345 43.3579 273.202C23.0971 303.941 36.5722 348.733 36.7113 349.183L11.6342 357.017Z" fill="url(#paint9_linear)"/>
<path d="M95.1498 252.802C109.502 252.802 121.137 241.167 121.137 226.815C121.137 212.463 109.502 200.828 95.1498 200.828C80.7976 200.828 69.1628 212.463 69.1628 226.815C69.1628 241.167 80.7976 252.802 95.1498 252.802Z" fill="url(#paint10_radial)"/>
<path d="M72.0098 334.434L33.4683 329.307C26.597 328.397 20.2929 333.214 19.3725 340.085C18.4627 346.956 23.279 353.26 30.1504 354.181L68.6919 359.308C75.5632 360.217 81.8673 355.401 82.7878 348.53C83.6975 341.658 78.8705 335.344 72.0098 334.434Z" fill="#8A6FE8"/>
<path d="M3.73535 367.185L7.35297 393.076C8.36975 399.968 14.7702 404.731 21.6629 403.725C28.5556 402.708 33.3185 396.308 32.3124 389.415L28.5984 362.861L3.73535 367.185Z" fill="#8A6FE8"/>
<path d="M15.5194 374.988L34.849 405.427C38.6058 411.292 46.4082 413.005 52.2735 409.248C58.1387 405.491 59.8512 397.689 56.0945 391.823L41.7953 369.144L15.5194 374.988Z" fill="#8A6FE8"/>
<path d="M26.0511 363.739L51.8026 389.019C56.7688 393.911 64.7532 393.846 69.6445 388.88C74.5358 383.914 74.4715 375.929 69.516 371.038L43.2937 345.297L26.0511 363.739Z" fill="#8A6FE8"/>
<path d="M26.4043 381.912C40.987 381.912 52.8086 370.091 52.8086 355.508C52.8086 340.925 40.987 329.104 26.4043 329.104C11.8216 329.104 0 340.925 0 355.508C0 370.091 11.8216 381.912 26.4043 381.912Z" fill="url(#paint11_radial)"/>
<path d="M184.73 63.6308L157.819 66.5892L158.561 38.5412L177.888 36.4178L184.73 63.6308Z" fill="#8A6FE8"/>
<path d="M170.018 41.647C180.455 39.521 187.193 29.3363 185.067 18.8988C182.941 8.46126 172.757 1.72345 162.319 3.84944C151.882 5.97543 145.144 16.1601 147.27 26.5976C149.396 37.0351 159.58 43.773 170.018 41.647Z" fill="#D8CFF7"/>
<path d="M196.885 79.385C198.102 79.2464 198.948 78.091 198.684 76.8997C195.851 64.2818 183.923 55.5375 170.773 56.9926C157.622 58.4371 147.886 69.5735 147.865 82.4995C147.863 83.7232 148.949 84.6597 150.168 84.5316L196.885 79.385Z" fill="url(#paint12_radial)"/>
<defs>
<radialGradient id="paint0_radial" cx="0" cy="0" r="1" gradientUnits="userSpaceOnUse" gradientTransform="translate(382.004 103.457) scale(26.4058)">
<stop stop-color="#8065E0"/>
<stop offset="1" stop-color="#512BD4"/>
</radialGradient>
<linearGradient id="paint1_linear" x1="214.439" y1="303.482" x2="236.702" y2="409.505" gradientUnits="userSpaceOnUse">
<stop stop-color="#522CD5"/>
<stop offset="0.4397" stop-color="#8A6FE8"/>
</linearGradient>
<linearGradient id="paint2_linear" x1="231.673" y1="404.144" x2="297.805" y2="522.048" gradientUnits="userSpaceOnUse">
<stop stop-color="#522CD5"/>
<stop offset="0.4397" stop-color="#8A6FE8"/>
</linearGradient>
<radialGradient id="paint3_radial" cx="0" cy="0" r="1" gradientUnits="userSpaceOnUse" gradientTransform="translate(280.957 469.555) rotate(-0.260742) scale(45.8326)">
<stop offset="0.034" stop-color="#522CD5"/>
<stop offset="0.9955" stop-color="#8A6FE8"/>
</radialGradient>
<linearGradient id="paint4_linear" x1="166.061" y1="303.491" x2="144.763" y2="409.709" gradientUnits="userSpaceOnUse">
<stop stop-color="#522CD5"/>
<stop offset="0.4397" stop-color="#8A6FE8"/>
</linearGradient>
<linearGradient id="paint5_linear" x1="146.739" y1="407.302" x2="147.246" y2="518.627" gradientUnits="userSpaceOnUse">
<stop stop-color="#522CD5"/>
<stop offset="0.4397" stop-color="#8A6FE8"/>
</linearGradient>
<radialGradient id="paint6_radial" cx="0" cy="0" r="1" gradientUnits="userSpaceOnUse" gradientTransform="translate(148.63 470.023) rotate(179.739) scale(50.2476)">
<stop offset="0.034" stop-color="#522CD5"/>
<stop offset="0.9955" stop-color="#8A6FE8"/>
</radialGradient>
<radialGradient id="paint7_radial" cx="0" cy="0" r="1" gradientUnits="userSpaceOnUse" gradientTransform="translate(219.219 153.929) rotate(179.739) scale(140.935)">
<stop offset="0.4744" stop-color="#A08BE8"/>
<stop offset="0.8618" stop-color="#8065E0"/>
</radialGradient>
<radialGradient id="paint8_radial" cx="0" cy="0" r="1" gradientUnits="userSpaceOnUse" gradientTransform="translate(314.861 158.738) rotate(179.739) scale(146.053)">
<stop offset="0.0933" stop-color="#E1DFDD"/>
<stop offset="0.6573" stop-color="white"/>
</radialGradient>
<linearGradient id="paint9_linear" x1="54.1846" y1="217.159" x2="54.1846" y2="357.022" gradientUnits="userSpaceOnUse">
<stop offset="0.3344" stop-color="#9780E6"/>
<stop offset="0.8488" stop-color="#8A6FE8"/>
</linearGradient>
<radialGradient id="paint10_radial" cx="0" cy="0" r="1" gradientUnits="userSpaceOnUse" gradientTransform="translate(90.3494 218.071) rotate(-0.260742) scale(25.9924)">
<stop stop-color="#8065E0"/>
<stop offset="1" stop-color="#512BD4"/>
</radialGradient>
<radialGradient id="paint11_radial" cx="0" cy="0" r="1" gradientUnits="userSpaceOnUse" gradientTransform="translate(25.805 345.043) scale(26.4106)">
<stop stop-color="#8065E0"/>
<stop offset="1" stop-color="#512BD4"/>
</radialGradient>
<radialGradient id="paint12_radial" cx="0" cy="0" r="1" gradientUnits="userSpaceOnUse" gradientTransform="translate(169.113 67.3662) rotate(-32.2025) scale(21.0773)">
<stop stop-color="#8065E0"/>
<stop offset="1" stop-color="#512BD4"/>
</radialGradient>
</defs>
</svg>-->

<svg width="133" height="27" viewBox="0 0 133 27" fill="none" xmlns="http://www.w3.org/2000/svg">
  <path d="M22.3654 7.44391C22.0136 7.7646 21.654 8.10491 21.2996 8.46525C20.7038 4.68926 19.8571 2.23483 19.8571 2.23483L18.6116 2.57295C18.0332 4.54852 15.5814 5.47095 15.5814 5.47095C13.0261 6.35155 11.2266 4.7629 11.2266 4.7629L8.6222 5.73239C13.8137 15.5662 13.3953 23.6045 13.3953 23.6045C12.0638 13.9458 5.97079 4.73589 5.97079 4.73589L11.6424 2.77513C12.9644 4.87183 14.9335 4.31672 14.9335 4.31672C17.5501 3.57686 17.0261 1.12025 17.0261 1.12025L20.7503 0C21.5822 2.71064 22.0871 5.2069 22.365 7.44391H22.3654Z" fill="#5DBDF0"/>
  <path d="M21.6413 19.8037C21.917 17.256 21.9144 14.8042 21.7618 12.582C22.0375 12.1258 22.3354 11.6547 22.6507 11.1785C22.7933 16.6268 21.6413 19.8037 21.6413 19.8037Z" fill="#5DBDF0"/>
  <path d="M7.91854 8.90927C7.91854 8.90927 6.39519 11.1445 3.34892 9.58769L0.517914 12.3471C0.517914 12.3471 9.02616 16.5249 11.9494 22.1976C11.9494 22.1976 11.3031 17.5418 2.84099 11.9925L3.74379 10.9031C3.74379 10.9031 7.30277 11.9772 7.91854 8.90927Z" fill="#186CA8"/>
  <path d="M4.61572 15.0346C4.61572 15.0346 4.55397 17.5218 1.10805 17.6655L0 21.0568C0 21.0568 8.61566 20.913 13.4571 24.2223C13.4571 24.2223 9.72371 20.1936 1.76427 19.8442L2.01041 18.4259C2.01041 18.4259 5.13887 18.2921 4.61572 15.0346Z" fill="#5DBDF0"/>
  <path d="M23.3347 16.0007C23.3347 16.0007 29.5195 15.8773 19.0882 21.9204C19.0882 21.9204 13.7341 25.2193 9.08748 25.1578C9.08748 25.1578 6.90965 25.2668 9.08748 23.1539C9.08748 23.1539 4.63615 26.3809 8.69784 26.7918C8.69784 26.7918 13.4571 26.8946 18.5464 24.2663C18.5464 24.2663 28.3192 19.8241 27.3038 16.9566C27.3038 16.9566 27.0372 20.9544 15.6723 24.9831C15.6723 24.9831 26.2984 20.2969 26.8319 17.049C26.8319 17.049 27.119 15.3227 23.3343 16.0007H23.3347Z" fill="#5DBDF0"/>
  <path d="M13.2136 12.2486C13.2136 12.2486 15.8393 14.4891 17.4601 17.6133C17.4601 17.6133 18.1372 18.3945 18.5268 17.1815C18.5268 17.1815 21.9527 8.94932 27.553 4.47879C27.553 4.47879 21.0295 8.20946 17.8602 14.2521C17.8602 14.2521 16.2294 11.5698 15.6858 11.0865C15.6858 11.0865 15.2448 10.6652 13.214 12.2478L13.2136 12.2486Z" fill="#5DBDF0"/>
  <path d="M120.461 6.43836H118.791V4.89218H124.048V6.43836H122.564L125.594 11.448L128.686 6.43836H127.14V4.89218H132.088V6.43836H130.573L126.46 12.8705L130.851 20.0448H132.397V21.591H127.14V20.0448H128.717L125.223 14.3239L121.852 20.0448H123.429V21.591H118.482V20.0448H119.966L124.388 12.9323L120.461 6.43836Z" fill="white"/>
  <path d="M111.998 20.0448H113.853V6.43836H111.998V4.89218H117.564V6.43836H115.708V20.0448H117.564V21.591H111.998V20.0448Z" fill="white"/>
  <path d="M101.483 20.0448H103.647V6.43836H100.246V8.91226H98.6068V4.89218H110.543V8.91226H108.904V6.43836H105.503V20.0448H107.667V21.591H101.483V20.0448Z" fill="white"/>
  <path d="M96.8468 19.2717V20.9416C95.816 21.5807 94.61 21.9002 93.2287 21.9002C91.6001 21.9002 90.3219 21.3539 89.3942 20.2612C88.4871 19.1686 88.0336 17.643 88.0336 15.6845C88.0336 13.6642 88.518 12.0871 89.487 10.9532C90.4559 9.79874 91.6723 9.2215 93.136 9.2215C94.3317 9.2215 95.3006 9.69566 96.0428 10.644C96.785 11.5923 97.1561 12.9426 97.1561 14.695V15.6536H89.9508C89.9921 17.0967 90.2704 18.2203 90.7858 19.0243C91.3218 19.8283 92.167 20.2509 93.3215 20.2922C94.5997 20.2922 95.7748 19.952 96.8468 19.2717ZM95.3006 14.1693C95.3006 12.9942 95.0842 12.1386 94.6512 11.6026C94.2183 11.046 93.6101 10.7677 92.8267 10.7677C92.064 10.7677 91.4249 11.0563 90.9095 11.6335C90.3941 12.1902 90.0848 13.0354 89.9818 14.1693H95.3006Z" fill="white"/>
  <path d="M79.5377 20.0448H81.0839V11.0769H79.5377V9.53073H82.8465L82.9393 11.2625H83.0012C83.3929 10.6027 83.8258 10.1183 84.3 9.80904C84.7741 9.4998 85.3411 9.34518 86.0008 9.34518C86.2482 9.34518 86.4646 9.3658 86.6502 9.40703V11.3552C86.3409 11.2934 86.0214 11.2625 85.6915 11.2625C85.0937 11.2625 84.568 11.4068 84.1144 11.6954C83.6815 11.9634 83.2898 12.4066 82.9393 13.0251V20.0448H84.7947V21.591H79.5377V20.0448Z" fill="white"/>
  <path d="M67.633 15.6227C67.633 13.6642 68.1072 12.1077 69.0555 10.9532C70.0244 9.79874 71.2408 9.2215 72.7045 9.2215C74.1682 9.2215 75.333 9.75751 76.1988 10.8295C77.0853 11.9015 77.5286 13.4065 77.5286 15.3444C77.5286 17.3235 77.0647 18.9109 76.137 20.1066C75.2093 21.3023 73.993 21.9002 72.488 21.9002C71.0037 21.9002 69.8183 21.3333 68.9318 20.1994C68.0659 19.0449 67.633 17.5193 67.633 15.6227ZM69.5812 15.3444C69.5812 16.973 69.8389 18.2203 70.3543 19.0861C70.8903 19.9314 71.6531 20.354 72.6426 20.354C73.5703 20.354 74.2919 19.9623 74.8073 19.1789C75.3227 18.3749 75.5804 17.1586 75.5804 15.5299C75.5804 12.3551 74.5702 10.7677 72.5499 10.7677C71.5809 10.7677 70.8387 11.1388 70.3234 11.8809C69.8286 12.6025 69.5812 13.757 69.5812 15.3444Z" fill="white"/>
  <path d="M65.3165 21.1271C64.3269 21.6425 63.2446 21.9002 62.0695 21.9002C60.3996 21.9002 59.0802 21.3642 58.1112 20.2922C57.1423 19.2201 56.6578 17.6843 56.6578 15.6845C56.6578 13.6642 57.1629 12.0871 58.1731 10.9532C59.2039 9.79874 60.5336 9.2215 62.1622 9.2215C63.2961 9.2215 64.3475 9.45858 65.3165 9.93274V12.9323H63.6775V11.046C63.224 10.8605 62.6673 10.7677 62.0076 10.7677C60.8531 10.7677 59.9976 11.1388 59.441 11.8809C58.8843 12.6025 58.606 13.757 58.606 15.3444C58.606 17.0349 58.905 18.2821 59.5028 19.0861C60.1007 19.8902 60.9665 20.2922 62.1004 20.2922C63.2137 20.2922 64.2857 20.0139 65.3165 19.4572V21.1271Z" fill="white"/>
  <path d="M43.3597 20.0448H44.9059V11.0769H43.3597V9.53073H46.6377L46.7304 11.1388H46.7613C47.8746 9.86059 49.1528 9.2215 50.5959 9.2215C51.6267 9.2215 52.3791 9.52043 52.8533 10.1183C53.3275 10.6955 53.5645 11.5202 53.5645 12.5922V20.0448H55.1107V21.591H50.4722V20.0448H51.7091V12.8396C51.7091 12.0149 51.5648 11.4686 51.2762 11.2006C50.9876 10.912 50.5856 10.7677 50.0702 10.7677C48.8745 10.7677 47.7715 11.4068 46.7613 12.6849V20.0448H47.9983V21.591H43.3597V20.0448Z" fill="white"/>
  <path d="M39.8645 20.0448V17.8801H41.5034V21.591H30.3709V20.0448H32.2263V6.43836H30.3709V4.89218H41.1942V8.60302H39.5552V6.43836H34.0818V12.3139H37.1741V10.7677H38.7203V15.7155H37.1741V13.86H34.0818V20.0448H39.8645Z" fill="white"/>
</svg>

